<svg width="105" height="18" fill="none" xmlns="http://www.w3.org/2000/svg"><g clip-path="url(#clip0)" fill="#A5CD39"><path d="M.5 8.5h30v1H.5zm43.542-2.457s.298 3.45-1.674 3.16c-2.143-.319-2.072-2.536-1.59-3.304.483-.769 2.37-3.392 1.05-5.189 0 0 4.597 1.986 3.136 8.13 0 0 2.086-4.666 5.278-5.753 3.193-1.073 6.172-.464 8.258-.826 2.086-.362 3.845-.725 5.959-2.261 0 0 .369 4.884-1.107 6.942-1.759 2.435-3.39 4.116-8.612 5.478-5.221 1.363-11.819.551-12.018 5.58 0 0-.212-3.174 1.334-5.391 1.547-2.218 3.717-6.392 10.599-8.13 0 0-5.051-1.798-10.074 5.695-.014 0 .383-2.667-.54-4.13zM74.5 8.5h30v1h-30z"/></g><defs><clipPath id="clip0"><path fill="#fff" d="M.5 0h104v18H.5z"/></clipPath></defs></svg>