<svg width="54" height="54" fill="none" xmlns="http://www.w3.org/2000/svg"><path d="M23.356 25.442h4.673a.78.78 0 000-1.557h-4.673a.78.78 0 000 1.557z" fill="#fff"/><path d="M46.721 9.865H23.356a.78.78 0 000 1.558h22.586v35.048c0 1.245-1.092 2.337-2.336 2.337H10.894c-1.244 0-2.336-1.092-2.336-2.337V10.71c.5.338 1.054.537 1.557.635V46.47a.78.78 0 001.558 0V10.644a.783.783 0 00-.775-.779c-.391-.004-2.34-.137-2.34-2.336V6.75a1.56 1.56 0 011.557-1.558h36.606a.78.78 0 000-1.557H10.115A3.119 3.119 0 007 6.75v39.721c0 2.11 1.784 3.894 3.894 3.894h32.712c2.11 0 3.894-1.783 3.894-3.894V10.644a.78.78 0 00-.779-.779z" fill="#fff"/><path d="M45.942 7.529a.78.78 0 00-.779-.779H20.24a.78.78 0 00-.779.779v7.466l-1.785-1.786a.778.778 0 00-1.102 0l-1.786 1.786V7.529a.78.78 0 00-.778-.779h-3.116a.78.78 0 000 1.558h2.337v8.567a.78.78 0 001.33.55l2.564-2.564 2.564 2.565a.779.779 0 001.33-.551V8.308h24.144a.78.78 0 00.78-.78zM17.904 19.99v12.462c0 .43.349.779.779.779h17.134a.78.78 0 00.779-.779V19.991a.78.78 0 00-.779-.78H18.683a.78.78 0 00-.78.78zm1.558.78h15.576v10.903H19.462V20.77z" fill="#fff"/><path d="M31.144 27h-7.788a.78.78 0 000 1.558h7.788a.78.78 0 000-1.558z" fill="#fff"/></svg>