<svg width="28" height="28" fill="none" xmlns="http://www.w3.org/2000/svg"><g clip-path="url(#clip0)" fill="#fff"><path d="M24.208 2.75h-1.25V.667h-2.083V2.75H7.125V.667H5.042V2.75h-1.25A3.129 3.129 0 00.667 5.875v18.333a3.128 3.128 0 003.125 3.125h20.416a3.129 3.129 0 003.125-3.125V5.875a3.129 3.129 0 00-3.125-3.125zm1.042 21.458c0 .575-.467 1.042-1.042 1.042H3.792a1.043 1.043 0 01-1.042-1.042v-13.75h22.5v13.75zm0-15.833H2.75v-2.5c0-.574.467-1.042 1.042-1.042h1.25v2.084h2.083V4.833h13.75v2.084h2.083V4.833h1.25c.575 0 1.042.468 1.042 1.042v2.5z"/><path d="M6.708 12.646H4.625v2.083h2.083v-2.083zm4.167 0H8.792v2.083h2.083v-2.083zm4.167 0h-2.084v2.083h2.084v-2.083zm4.166 0h-2.083v2.083h2.083v-2.083zm4.167 0h-2.083v2.083h2.083v-2.083zM6.708 16.813H4.625v2.083h2.083v-2.084zm4.167 0H8.792v2.083h2.083v-2.084zm4.167 0h-2.084v2.083h2.084v-2.084zm4.166 0h-2.083v2.083h2.083v-2.084zm-12.5 4.167H4.625v2.082h2.083V20.98zm4.167 0H8.792v2.082h2.083V20.98zm4.167 0h-2.084v2.082h2.084V20.98zm4.166 0h-2.083v2.082h2.083V20.98zm4.167-4.167h-2.083v2.083h2.083v-2.084z"/></g><defs><clipPath id="clip0"><path fill="#fff" d="M.667.667h26.667v26.667H.667z"/></clipPath></defs></svg>