<svg width="40" height="40" fill="none" xmlns="http://www.w3.org/2000/svg"><mask id="a" maskUnits="userSpaceOnUse" x="0" y="0" width="40" height="40"><path fill="#C4C4C4" d="M0 0h40v40H0z"/></mask><g mask="url(#a)"><path d="M24.478 2H15.27L2.188 38.347h10.104L19.88 13.71l7.598 24.637h10.093L24.478 2z" fill="#302B6B"/><path d="M8.223 24.483s.333 3.996-1.908 3.66c-2.426-.36-2.345-2.93-1.805-3.823.552-.891 2.69-3.926 1.195-6.011 0 0 5.231 2.305 3.564 9.428 0 0 2.368-5.409 6-6.671 3.633-1.24 7.025-.533 9.393-.962 2.368-.417 4.38-.845 6.782-2.617 0 0 .425 5.664-1.264 8.05-2 2.826-3.863 4.772-9.795 6.347-5.943 1.575-13.45.637-13.668 6.475 0 0-.241-3.683 1.517-6.255 1.76-2.571 4.23-7.413 12.06-9.428 0 0-5.748-2.085-11.462 6.602-.011 0 .449-3.093-.609-4.795z" fill="#0BB451"/></g></svg>