<svg width="70" height="70" fill="none" xmlns="http://www.w3.org/2000/svg"><path d="M59.608 10.593C53.035 4.02 44.296.4 35 .4c-9.295 0-18.034 3.62-24.607 10.193C3.82 17.166.2 25.905.2 35.2c0 9.296 3.62 18.035 10.193 24.607C16.966 66.38 25.705 70 35 70c8.16 0 16.093-2.881 22.338-8.114a1.022 1.022 0 00-1.314-1.567 32.721 32.721 0 01-12.103 6.395c2.21-1.732 4.238-4.12 5.995-7.111 1.163-1.98 2.167-4.157 3.003-6.484 2.327-.836 4.504-1.84 6.484-3.004 2.999-1.761 5.393-3.796 7.126-6.014a32.643 32.643 0 01-7.59 13.458 1.023 1.023 0 001.493 1.396A34.678 34.678 0 0069.8 35.201c0-9.296-3.62-18.035-10.192-24.608zm-1.446 1.446c4.032 4.032 6.883 8.931 8.38 14.277-1.734-2.225-4.133-4.265-7.14-6.031-1.977-1.163-4.152-2.166-6.477-3.001-.945-2.63-2.107-5.066-3.472-7.249a1.022 1.022 0 10-1.733 1.084c1.012 1.619 1.91 3.414 2.688 5.342-4.731-1.393-9.976-2.13-15.408-2.13-5.433 0-10.679.738-15.41 2.131 1.048-2.594 2.313-4.936 3.76-6.93C26.716 4.894 30.745 2.444 35 2.444c3.673 0 7.243 1.873 10.325 5.417a1.023 1.023 0 001.543-1.342 21.52 21.52 0 00-3.001-2.867c5.352 1.496 10.258 4.349 14.295 8.386zm-42.85 18.754a1.021 1.021 0 00-1.081.961 59.389 59.389 0 00-.1 3.446c0 5.437.738 10.686 2.134 15.42a35.42 35.42 0 01-4.631-2.267C5.579 44.795 2.245 40.124 2.245 35.2c0-4.924 3.334-9.595 9.389-13.153a35.367 35.367 0 014.645-2.272 51.562 51.562 0 00-1.653 7.827 1.022 1.022 0 102.028.269c.418-3.161 1.113-6.191 2.046-8.989 4.909-1.636 10.487-2.507 16.3-2.507 5.812 0 11.387.87 16.294 2.505 1.638 4.93 2.531 10.56 2.531 16.32 0 5.819-.872 11.401-2.511 16.313C46.402 53.152 40.82 54.024 35 54.024c-5.819 0-11.401-.872-16.313-2.51-1.639-4.913-2.51-10.495-2.51-16.314 0-1.11.032-2.23.096-3.327a1.023 1.023 0 00-.961-1.08zM11.839 12.04c4.044-4.045 8.96-6.9 14.323-8.394-1.596 1.234-3.1 2.803-4.466 4.685-1.834 2.526-3.388 5.566-4.601 8.947-2.332.837-4.513 1.842-6.497 3.008-3.007 1.766-5.405 3.806-7.139 6.03 1.497-5.345 4.347-10.244 8.38-14.276zm0 46.322c-4.033-4.032-6.883-8.931-8.38-14.277 1.734 2.225 4.132 4.265 7.139 6.031 1.98 1.164 4.157 2.168 6.484 3.004.836 2.327 1.84 4.503 3.003 6.483 1.767 3.007 3.807 5.406 6.031 7.14-5.346-1.498-10.245-4.348-14.277-8.38zm36.314.206C44.595 64.62 39.924 67.954 35 67.954c-4.924 0-9.595-3.334-13.152-9.389a35.389 35.389 0 01-2.268-4.631c4.734 1.395 9.983 2.134 15.42 2.134 5.437 0 10.686-.739 15.42-2.135a35.312 35.312 0 01-2.267 4.633zm10.214-10.214a35.341 35.341 0 01-4.632 2.266c1.396-4.733 2.134-9.983 2.134-15.419 0-5.457-.734-10.696-2.127-15.417a35.39 35.39 0 014.625 2.264c6.054 3.558 9.389 8.229 9.389 13.153 0 4.924-3.335 9.595-9.39 13.153z" fill="#fff"/><path d="M21.739 40.59a1.023 1.023 0 000 2.045h4.799c.564 0 1.022-.458 1.022-1.023v-10.37c0-.566-.457-1.024-1.022-1.024h-4.8a1.023 1.023 0 000 2.045h3.777v3.141H21.74a1.023 1.023 0 000 2.045h3.776v3.141H21.74zm18.193 2.045h5.185c.565 0 1.023-.458 1.023-1.023v-10.37c0-.566-.458-1.024-1.023-1.024h-5.185c-.565 0-1.023.458-1.023 1.023v10.372c0 .564.458 1.022 1.023 1.022zm4.163-6.208v4.163h-3.14v-8.327h3.14v4.164zm-13.297 6.208h5.185c.565 0 1.023-.458 1.023-1.023v-5.185c0-.565-.458-1.023-1.023-1.023H31.82v-3.14h4.163a1.022 1.022 0 100-2.046h-5.185c-.565 0-1.023.458-1.023 1.023v10.372c0 .564.458 1.022 1.023 1.022zm1.022-5.186h3.14v3.141h-3.14v-3.14zm16.072-8.499a2.819 2.819 0 002.815-2.815 2.819 2.819 0 00-2.815-2.816 2.82 2.82 0 00-2.816 2.816 2.82 2.82 0 002.816 2.816zm0-3.586a.771.771 0 11-.002 1.543.771.771 0 01.002-1.543z" fill="#fff"/></svg>