<svg width="146" height="103" fill="none" xmlns="http://www.w3.org/2000/svg"><path d="M30.88 52.489s2.491 29.866-14.264 27.356C-1.514 77.16-.912 57.943 3.126 51.277c4.125-6.666 20.107-29.348 8.937-44.93 0 0 39.094 17.227 26.636 70.468 0 0 17.7-40.428 44.851-49.865 27.152-9.263 52.499-3.982 70.199-7.185 17.7-3.117 32.737-6.32 50.695-19.565 0 0 3.179 42.333-9.452 60.166-14.95 21.124-28.87 35.668-73.206 47.441-44.422 11.774-100.53 4.761-102.162 48.393 0 0-1.805-27.529 11.341-46.748 13.147-19.219 31.62-55.405 90.134-70.468 0 0-42.962-15.583-85.665 49.345-.086 0 3.35-23.115-4.554-35.84z" fill="#0BB451"/></svg>