<svg width="28" height="29" fill="none" xmlns="http://www.w3.org/2000/svg"><g clip-path="url(#clip0)" fill="#5B8C51"><path d="M9.078 18.11h14.82a.818.818 0 00.789-.596L27.968 6.03a.82.82 0 00-.788-1.046H7.184l-.586-2.638a.82.82 0 00-.801-.643H.82a.82.82 0 100 1.64h4.318l2.963 13.33a2.463 2.463 0 00-1.484 2.257 2.464 2.464 0 002.461 2.46h14.82a.82.82 0 100-1.64H9.079a.821.821 0 010-1.64zm-.82 5.742a2.464 2.464 0 002.461 2.46 2.464 2.464 0 002.46-2.46 2.464 2.464 0 00-2.46-2.461 2.464 2.464 0 00-2.461 2.46zm11.539 0a2.464 2.464 0 002.461 2.46 2.464 2.464 0 002.461-2.46 2.464 2.464 0 00-2.461-2.461 2.464 2.464 0 00-2.46 2.46z"/></g><defs><clipPath id="clip0"><path fill="#fff" transform="translate(0 .008)" d="M0 0h28v28H0z"/></clipPath></defs></svg>