<svg width="42" height="54" fill="none" xmlns="http://www.w3.org/2000/svg"><path d="M13.152 47.746v-.03a2.095 2.095 0 001.06-1.85c0-1.407-1.171-2.198-2.642-2.198-1.213 0-2.162.615-2.537 1.465l1.301.697c.24-.422.592-.691 1.201-.691.61 0 1.09.404 1.09 1.002 0 .533-.328.972-1.066.972h-.727v1.325h.592c.908 0 1.36.503 1.36 1.101 0 .686-.563 1.096-1.22 1.096-.744 0-1.2-.346-1.423-.932l-1.418.592c.404 1.037 1.488 1.81 2.953 1.81 1.6 0 2.783-.92 2.783-2.337 0-.961-.51-1.653-1.3-2.016l-.007-.006zm5.819-1.025c-.534 0-1.067.135-1.512.38l-.023-.005c.474-1.178 1.476-1.887 2.953-2.303l-.475-1.313c-2.584.48-4.348 2.649-4.348 5.327 0 1.98 1.272 3.298 2.96 3.298 1.687 0 2.97-1.113 2.97-2.724 0-1.705-1.142-2.654-2.525-2.654v-.006zm-.399 3.92c-.797 0-1.453-.674-1.453-1.7v-.11c.334-.411.861-.733 1.436-.733.82 0 1.353.521 1.353 1.242 0 .703-.545 1.3-1.336 1.3zm7.149 1.459c2.01 0 3.216-1.694 3.216-4.213 0-2.666-1.306-4.219-3.216-4.219-1.987 0-3.205 1.7-3.205 4.219 0 2.666 1.3 4.213 3.205 4.213zm.006-1.512c-.967 0-1.541-1.043-1.541-2.707 0-1.74.591-2.696 1.54-2.696.973 0 1.542 1.032 1.542 2.702 0 1.746-.586 2.7-1.541 2.7zM21 10.5a.888.888 0 01-.315-.058L9.31 6.067a.875.875 0 010-1.634L20.685.058a.883.883 0 01.628 0l11.375 4.375a.874.874 0 01.002 1.634l-11.375 4.375A.888.888 0 0121 10.5zm-8.937-5.25L21 8.687l8.937-3.437L21 1.813 12.063 5.25z" fill="#fff"/><path d="M21 24.5a.888.888 0 01-.315-.058L9.31 20.067a.875.875 0 01-.56-.817v-14a.875.875 0 011.75 0v13.4L21 22.689l10.5-4.04V5.25a.875.875 0 011.75 0v14a.874.874 0 01-.56.817l-11.375 4.375A.888.888 0 0121 24.5z" fill="#fff"/><path d="M21 24.5a.875.875 0 01-.875-.875v-14a.875.875 0 011.75 0v14A.875.875 0 0121 24.5zm-2.625 12.25a.874.874 0 01-.525-1.575l2.565-1.925-2.565-1.925a.874.874 0 111.05-1.4l3.5 2.625a.874.874 0 010 1.4l-3.5 2.625a.876.876 0 01-.525.175z" fill="#fff"/><path d="M21 34.125c-2.646 0-5.15-.126-7.444-.373C10.38 33.432 0 32.07 0 28c0-1.661 1.713-3.049 5.089-4.123.555-.172 1.15.26 1.15.834a.869.869 0 01-.693.858c-2.8.901-3.796 1.872-3.796 2.43 0 1.166 3.719 3.179 11.988 4.012 2.236.241 4.677.364 7.262.364a.875.875 0 010 1.75zm6.107-.263a.875.875 0 01-.07-1.746C36.05 31.379 40.25 29.225 40.25 28c0-.564-1.014-1.545-3.871-2.455a.876.876 0 01.53-1.668c3.377 1.074 5.09 2.462 5.09 4.123 0 4.314-11.343 5.575-14.82 5.86-.024.002-.049.002-.072.002z" fill="#fff"/></svg>