<svg width="274" height="294" fill="none" xmlns="http://www.w3.org/2000/svg"><path d="M118.5 281.402a37.002 37.002 0 0037 0l88.646-51.18a37.001 37.001 0 0018.5-32.043V95.82a37.002 37.002 0 00-18.5-32.042L155.5 12.598a37 37 0 00-37 0l-88.645 51.18a37 37 0 00-18.5 32.042v102.36a37 37 0 0018.5 32.043l88.645 51.18z" fill="#0BB451" stroke="url(#paint0_linear)" stroke-width="14"/><g clip-path="url(#clip0)"><path d="M66.183 191.248a.895.895 0 01-.756-.423 83.316 83.316 0 01-4.38-8.672c-.2-.445 0-.958.445-1.136a.839.839 0 011.134.445 86.627 86.627 0 004.29 8.493c.245.424.111.959-.311 1.182a.916.916 0 01-.422.111zm-7.67-17.588a.854.854 0 01-.823-.624 86.89 86.89 0 01-2.29-9.429.882.882 0 01.69-1.025.88.88 0 011.022.691 88.999 88.999 0 002.246 9.251c.133.468-.111.958-.578 1.092-.111.022-.178.044-.267.044zm-3.468-18.903a.875.875 0 01-.867-.824 92.837 92.837 0 01-.178-5.596c0-1.359.022-2.741.089-4.101a.856.856 0 01.911-.825c.49.022.845.424.823.914a81.41 81.41 0 00-.089 4.035c0 1.828.067 3.678.178 5.483a.89.89 0 01-.8.937c-.023-.023-.045-.023-.067-.023zm.934-19.17c-.045 0-.09 0-.134-.023a.864.864 0 01-.711-1.003 85.652 85.652 0 012.09-9.473.865.865 0 011.067-.602.859.859 0 01.6 1.07c-.845 3.031-1.556 6.152-2.045 9.295-.09.424-.467.736-.867.736zm5.202-18.48a.882.882 0 01-.334-.067.851.851 0 01-.467-1.136 85.446 85.446 0 014.202-8.761c.245-.424.756-.58 1.178-.334a.852.852 0 01.334 1.181 82.066 82.066 0 00-4.113 8.582.866.866 0 01-.8.535zm9.292-16.785a.866.866 0 01-.711-1.382 79.341 79.341 0 016.091-7.557.873.873 0 011.223-.067c.356.334.378.87.067 1.226a82.528 82.528 0 00-5.958 7.4.887.887 0 01-.712.38zm12.85-14.244c-.245 0-.49-.09-.645-.29a.859.859 0 01.089-1.226 81.786 81.786 0 017.625-5.974.857.857 0 011.2.223c.267.401.178.936-.222 1.203-2.579 1.806-5.113 3.768-7.47 5.863a.912.912 0 01-.577.2zm15.74-10.945a.823.823 0 01-.757-.468.878.878 0 01.356-1.182c2.846-1.538 5.802-2.898 8.781-4.102a.877.877 0 011.134.49.88.88 0 01-.489 1.138 81.608 81.608 0 00-8.603 4.012.8.8 0 01-.423.112zm17.784-7.067a.901.901 0 01-.845-.646c-.133-.468.156-.936.623-1.07 3.112-.847 6.291-1.494 9.492-1.984a.874.874 0 01.979.736.875.875 0 01-.734.98 82.9 82.9 0 00-9.293 1.94.779.779 0 01-.222.044zM136.032 233h-.022a80.274 80.274 0 01-6.136-.424 65.585 65.585 0 01-3.512-.445.875.875 0 01-.734-.981.873.873 0 01.978-.736 92.02 92.02 0 003.446.424c2.001.2 4.024.334 6.025.401.489.022.867.423.845.892-.045.49-.423.869-.89.869zm9.582-.268a.87.87 0 01-.867-.802c-.045-.49.311-.892.8-.936a83.174 83.174 0 009.404-1.338.864.864 0 011.023.691.866.866 0 01-.69 1.026 81.587 81.587 0 01-9.603 1.359h-.067zm-28.545-2.496c-.066 0-.155 0-.222-.022a82.502 82.502 0 01-9.204-3.032.88.88 0 01-.489-1.137.876.876 0 011.134-.49c2.935 1.159 5.98 2.14 9.026 2.964a.89.89 0 01.622 1.07c-.133.379-.489.647-.867.647zm47.308-1.293a.883.883 0 01-.823-.602.859.859 0 01.556-1.092 85.628 85.628 0 008.848-3.455.88.88 0 011.156.423c.2.446 0 .959-.422 1.159a83.767 83.767 0 01-9.026 3.522c-.111.045-.2.045-.289.045zm17.407-7.98a.923.923 0 01-.756-.424.895.895 0 01.289-1.204 85.31 85.31 0 007.825-5.372.877.877 0 011.223.156.883.883 0 01-.156 1.226 84.638 84.638 0 01-8.003 5.484.684.684 0 01-.422.134zm39.304-58.025c-.044 0-.089 0-.133-.022-.467-.089-.801-.535-.712-1.003.289-1.694.512-3.433.69-5.127.155-1.427.266-2.898.333-4.325.022-.49.422-.869.911-.825a.87.87 0 01.823.914c-.067 1.472-.2 2.965-.333 4.414a84.738 84.738 0 01-.712 5.239.863.863 0 01-.867.735zm1.001-19.17a.875.875 0 01-.867-.825 84.489 84.489 0 00-1.134-9.452.848.848 0 01.711-1.003.847.847 0 011.001.714 83.008 83.008 0 011.156 9.652.858.858 0 01-.823.914h-.044zm-3.402-18.881a.853.853 0 01-.822-.624 79.652 79.652 0 00-3.268-8.939.86.86 0 01.444-1.137c.445-.178.956.022 1.134.446a84.623 84.623 0 013.335 9.117c.133.468-.111.959-.578 1.092a.78.78 0 01-.245.045zm-7.603-17.633a.844.844 0 01-.756-.445 85.548 85.548 0 00-5.202-7.958c-.289-.38-.2-.937.178-1.226.378-.29.934-.201 1.223.178a84.885 84.885 0 015.313 8.114.863.863 0 01-.311 1.181c-.134.134-.289.156-.445.156zm-11.382-15.425a.928.928 0 01-.645-.268 83.183 83.183 0 00-6.869-6.576.879.879 0 01-.089-1.226.873.873 0 011.223-.089 86.513 86.513 0 017.002 6.71.855.855 0 01-.044 1.226.936.936 0 01-.578.223zm-14.584-12.461a.847.847 0 01-.489-.156 83.879 83.879 0 00-8.181-4.837.876.876 0 01.801-1.56 80.47 80.47 0 018.336 4.948c.4.267.512.802.245 1.204a.828.828 0 01-.712.401z" fill="#005757"/><path d="M181.871 191.665c23.918-23.983 23.918-62.867 0-86.85-23.918-23.983-62.697-23.983-86.615 0-23.918 23.983-23.918 62.867 0 86.85 23.918 23.983 62.697 23.983 86.615 0z" fill="#fff"/><path d="M171.246 109.528c7.826 0 14.161-6.353 14.161-14.2 0-7.11-5.224-12.973-12.004-14.02.111-.647.2-1.294.2-1.985 0-5.817-4.691-10.521-10.493-10.521-1.756 0-3.424.446-4.891 1.204-3.357-4.904-8.981-8.137-15.362-8.137-10.27 0-18.585 8.337-18.585 18.636 0 .2.022.424.022.624h-.022c-7.825 0-14.161 6.353-14.161 14.2 0 7.846 6.336 13.419 14.161 13.419l46.974.78z" fill="#fff"/><path d="M171.246 110.398a.856.856 0 01-.867-.87c0-.49.378-.869.867-.869 7.336 0 13.294-5.974 13.294-13.33 0-6.51-4.846-12.171-11.271-13.152-.244-.045-.444-.156-.578-.357a1 1 0 01-.155-.669c.111-.624.178-1.226.178-1.805 0-5.328-4.313-9.652-9.627-9.652-1.578 0-3.09.379-4.49 1.114a.88.88 0 01-1.134-.29 17.701 17.701 0 00-14.628-7.757c-9.759 0-17.718 7.958-17.718 17.766 0 .112 0 .2.022.312 0 .09.022.2.022.29a.97.97 0 01-.244.646.92.92 0 01-.712.268c-7.269 0-13.249 5.974-13.249 13.33 0 7.156 5.713 12.55 13.294 12.55.489 0 .867.379.867.87 0 .49-.378.869-.867.869-8.559 0-15.028-6.13-15.028-14.289 0-8.025 6.269-14.6 14.161-15.046.133-10.7 8.803-19.327 19.452-19.327 6.18 0 11.96 2.943 15.628 7.913a11.307 11.307 0 014.602-.98c6.269 0 11.36 5.104 11.36 11.39 0 .424-.022.848-.066 1.271 6.936 1.471 11.893 7.535 11.893 14.735.022 8.292-6.736 15.069-15.006 15.069z" fill="#005757"/><path d="M143.08 133.135h-12.561a.855.855 0 01-.867-.869c0-.491.378-.87.867-.87h11.694v-30.205c0-.49.378-.869.867-.869s.867.379.867.869v31.075c0 .49-.378.869-.867.869zm24.031-14.066h-6.98a.855.855 0 01-.867-.869v-18.012c0-.49.378-.87.867-.87s.867.38.867.87v17.12h6.113c.489 0 .867.379.867.869 0 .513-.378.892-.867.892z" fill="#005757"/><path d="M134.943 121.9h-11.916a.855.855 0 01-.867-.869c0-.491.378-.87.867-.87h11.049V100.21c0-.49.378-.869.867-.869s.867.379.867.869v20.821a.87.87 0 01-.867.869z" fill="#005757"/><path d="M126.656 121.772a3.232 3.232 0 00-2.396-3.888 3.222 3.222 0 00-3.878 2.403 3.232 3.232 0 002.396 3.888 3.223 3.223 0 003.878-2.403z" fill="#fff"/><path d="M123.516 125.132c-2.245 0-4.09-1.85-4.09-4.101 0-2.252 1.845-4.102 4.09-4.102 2.246 0 4.091 1.85 4.091 4.102 0 2.251-1.845 4.101-4.091 4.101zm0-6.464a2.36 2.36 0 00-2.356 2.363 2.36 2.36 0 002.356 2.362 2.36 2.36 0 002.357-2.362 2.36 2.36 0 00-2.357-2.363zm41.394 11.101h-11.915a.856.856 0 01-.867-.87v-20.82c0-.49.378-.869.867-.869s.867.379.867.869v19.951h11.048c.49 0 .867.379.867.869 0 .491-.377.87-.867.87z" fill="#005757"/><path d="M166.703 131.188a3.24 3.24 0 000-4.571 3.218 3.218 0 00-4.559 0 3.238 3.238 0 000 4.571 3.216 3.216 0 004.559 0z" fill="#fff"/><path d="M164.421 133.001c-2.245 0-4.09-1.85-4.09-4.102 0-2.251 1.845-4.101 4.09-4.101 2.246 0 4.091 1.85 4.091 4.101 0 2.252-1.823 4.102-4.091 4.102zm0-6.465a2.36 2.36 0 00-2.356 2.363 2.36 2.36 0 002.356 2.363 2.361 2.361 0 002.357-2.363 2.361 2.361 0 00-2.357-2.363z" fill="#005757"/><path d="M134.961 133.014a3.232 3.232 0 00-2.396-3.888 3.222 3.222 0 00-3.878 2.402 3.233 3.233 0 002.396 3.889 3.223 3.223 0 003.878-2.403z" fill="#ADFFBB"/><path d="M131.831 136.367c-2.246 0-4.091-1.85-4.091-4.102 0-2.251 1.845-4.101 4.091-4.101 2.245 0 4.09 1.85 4.09 4.101a4.1 4.1 0 01-4.09 4.102zm0-6.464a2.36 2.36 0 00-2.357 2.362 2.361 2.361 0 002.357 2.363 2.36 2.36 0 002.356-2.363 2.375 2.375 0 00-2.356-2.362z" fill="#005757"/><path d="M172.771 120.083a3.238 3.238 0 000-4.571 3.217 3.217 0 00-4.558 0 3.238 3.238 0 000 4.571 3.215 3.215 0 004.558 0z" fill="#ADFFBB"/><path d="M170.49 121.9c-2.245 0-4.09-1.85-4.09-4.102 0-2.251 1.845-4.101 4.09-4.101 2.246 0 4.091 1.85 4.091 4.101 0 2.252-1.845 4.102-4.091 4.102zm0-6.464a2.36 2.36 0 00-2.356 2.362 2.36 2.36 0 002.356 2.363 2.36 2.36 0 002.357-2.363 2.36 2.36 0 00-2.357-2.362z" fill="#005757"/><path d="M141.435 207.788l-.223.112c-6.869 3.277-14.25 3.277-21.119 0l-.223-.112c-6.869-3.299-14.25-3.299-21.119 0l-.222.112c-6.87 3.299-14.25 3.299-21.12 0l-.222-.112c-5.046-2.407-10.36-3.054-15.54-1.917v11.815h105.286v-7.802l-4.401-2.096c-6.847-3.299-14.228-3.299-21.097 0z" fill="#fff"/><path d="M166.934 218.555H61.648a.855.855 0 01-.867-.869v-11.815c0-.401.289-.758.689-.847 5.38-1.181 10.96-.49 16.117 1.984l.223.112c6.669 3.187 13.716 3.187 20.363 0l.222-.112c7.159-3.433 14.717-3.433 21.876 0l.222.112c6.669 3.187 13.694 3.187 20.364 0l.222-.112c7.158-3.433 14.717-3.433 21.853 0l4.402 2.096c.311.133.489.445.489.78v7.802c0 .468-.4.869-.889.869zm-104.42-1.739h103.553v-6.375l-3.913-1.872c-6.669-3.188-13.694-3.188-20.364 0l-.222.111c-7.158 3.433-14.717 3.433-21.875 0l-.223-.111c-6.669-3.188-13.716-3.188-20.363 0l-.222.111c-7.159 3.433-14.717 3.433-21.876 0l-.222-.111c-4.58-2.207-9.515-2.876-14.295-1.984v10.231h.023z" fill="#005757"/><path d="M162.554 198.493c-6.869-3.277-14.25-3.277-21.119 0l-.223.111c-6.869 3.299-14.25 3.277-21.119 0l-.223-.111c-6.869-3.299-14.25-3.299-21.119 0l-.222.111c-6.87 3.299-14.25 3.299-21.12 0l-.222-.111c-5.046-2.408-10.36-3.054-15.54-1.917v9.273c5.18-1.137 10.516-.49 15.54 1.917l.222.112c6.87 3.299 14.25 3.299 21.12 0l.222-.112c6.869-3.299 14.25-3.299 21.119 0l.223.112c6.869 3.299 14.25 3.299 21.119 0l.223-.112c6.869-3.277 14.25-3.277 21.119 0l4.402 2.095v-9.273l-4.402-2.095z" fill="#ADFFBB"/><path d="M130.652 211.244c-3.668 0-7.358-.847-10.937-2.564l-.222-.111c-6.67-3.188-13.717-3.188-20.364 0l-.222.111c-7.159 3.433-14.717 3.433-21.876 0l-.222-.111c-4.802-2.296-9.982-2.943-14.984-1.851a.796.796 0 01-.733-.178.89.89 0 01-.334-.669v-9.273a.88.88 0 01.69-.847c5.38-1.181 10.96-.49 16.117 1.984l.222.112c6.67 3.187 13.717 3.187 20.364 0l.222-.112c7.158-3.433 14.717-3.433 21.875 0l.223.112c6.669 3.187 13.694 3.187 20.363 0l.223-.112c7.158-3.433 14.717-3.433 21.853 0l4.401 2.095c.312.134.489.446.489.781v9.273c0 .29-.155.579-.4.735a.873.873 0 01-.844.045l-4.402-2.095c-6.669-3.188-13.694-3.188-20.364 0l-.222.111c-3.557 1.717-7.247 2.564-10.916 2.564zm-21.341-6.822c3.668 0 7.358.848 10.937 2.564l.223.111c6.669 3.188 13.694 3.188 20.363 0l.223-.111c7.158-3.433 14.717-3.433 21.853 0l3.156 1.516v-7.356l-3.912-1.873c-6.669-3.188-13.694-3.188-20.364 0l-.222.112c-7.158 3.432-14.717 3.432-21.853 0l-.222-.112c-6.67-3.188-13.717-3.188-20.364 0l-.222.112c-7.159 3.432-14.717 3.432-21.876 0l-.222-.112c-4.58-2.207-9.515-2.875-14.294-1.984v7.512c5.046-.869 10.226-.111 15.05 2.185l.222.111c6.67 3.188 13.717 3.188 20.364 0l.222-.111c3.579-1.694 7.27-2.564 10.938-2.564z" fill="#005757"/><path d="M78.876 204.333a.912.912 0 01-.622-.245.916.916 0 010-1.248c.044-.045.089-.067.133-.112.045-.022.09-.044.156-.067a.416.416 0 01.156-.044.85.85 0 01.333 0c.045 0 .111.022.156.044.044.023.11.045.155.067a.6.6 0 01.134.112.895.895 0 01.266.624.844.844 0 01-.266.624c-.134.156-.356.245-.6.245zm14.117 1.851a.856.856 0 01-.623-.268.843.843 0 01-.266-.624c0-.045 0-.112.022-.178a.41.41 0 01.045-.156c.022-.045.044-.112.089-.157a.589.589 0 01.11-.133c.045-.045.09-.067.134-.112.045-.022.089-.067.156-.089a.416.416 0 01.155-.044c.267-.067.578.044.778.245.045.044.067.089.112.133.022.045.066.09.088.157a.41.41 0 01.045.156c.022.044.022.111.022.178a.894.894 0 01-.067.334.842.842 0 01-.2.29.854.854 0 01-.289.201.65.65 0 01-.31.067zm13.094-4.481a.88.88 0 01-.333-.067.83.83 0 01-.289-.201.892.892 0 01-.267-.624c0-.044 0-.111.022-.178.022-.045.022-.111.045-.156.022-.045.044-.111.089-.156a.57.57 0 01.111-.134c.311-.312.911-.312 1.222 0 .045.045.067.089.112.134.022.045.066.089.089.156a.417.417 0 01.044.156c.022.045.022.111.022.178a.916.916 0 01-.244.624.83.83 0 01-.289.201.885.885 0 01-.334.067zm12.005 2.63a.88.88 0 01-.333-.067 1.2 1.2 0 01-.289-.178.915.915 0 01-.245-.624c0-.067 0-.112.022-.178 0-.045.022-.112.045-.156.022-.045.044-.112.089-.157a.568.568 0 01.111-.133c.044-.045.089-.067.133-.112.045-.022.089-.044.156-.067a.413.413 0 01.155-.044.853.853 0 01.334 0c.067 0 .111.022.155.044.045.023.112.045.156.067a.578.578 0 01.133.112c.045.044.067.089.112.133.022.045.066.09.089.157a.412.412 0 01.044.156c0 .066.022.111.022.178a.88.88 0 01-.267.624.764.764 0 01-.289.178.799.799 0 01-.333.067zm13.494 1.85a.857.857 0 01-.8-.557.885.885 0 01-.067-.334c0-.223.089-.446.245-.624.044-.045.089-.067.133-.112.045-.022.089-.067.156-.089a.415.415 0 01.155-.045.9.9 0 01.778.246c.045.044.067.089.112.133.022.045.066.089.089.156a.422.422 0 01.044.156.444.444 0 01.022.179.903.903 0 01-.066.334c-.045.112-.112.201-.178.29a.878.878 0 01-.623.267zm16.362-4.48a.838.838 0 01-.622-.268.876.876 0 01-.245-.624c0-.223.089-.446.245-.624a.9.9 0 01.778-.245c.067.022.111.022.155.044.045.023.112.045.156.067a.876.876 0 01.378.736.915.915 0 01-.245.624.742.742 0 01-.6.29zm10.582 1.27a.898.898 0 01-.333-.066.81.81 0 01-.267-.179c-.178-.156-.245-.379-.245-.624 0-.067 0-.111.023-.178.022-.045.022-.112.044-.156.022-.045.045-.112.089-.156.022-.045.067-.089.111-.134.045-.045.089-.067.134-.112.044-.022.088-.066.155-.089a.417.417 0 01.156-.044.812.812 0 01.333 0c.045.022.111.022.156.044.044.023.111.045.155.089.045.023.089.067.134.112a.918.918 0 01.244.624.849.849 0 01-.555.803c-.112.066-.223.066-.334.066zm-92.192-1.27a.84.84 0 01-.622-.268c-.09-.067-.134-.178-.178-.267a.42.42 0 01-.044-.156c-.023-.045-.023-.112-.023-.179 0-.222.09-.445.245-.624.044-.044.089-.067.133-.111.045-.022.111-.067.156-.089a.4.4 0 01.155-.045.904.904 0 01.779.245.877.877 0 01.244.624c0 .067 0 .112-.022.179-.023.044-.023.111-.045.156-.022.044-.044.089-.089.156a.612.612 0 01-.11.134 1.032 1.032 0 01-.267.2c-.09.023-.2.045-.312.045z" fill="#005757"/><path d="M148.882 179.367c1.134 1.382 3.246 1.427 4.424.067.711-.803 1.289-1.895 1.178-3.322-.178-2.34-3.223-5.951-3.223-5.951l-.023.022s-3.156 3.522-3.401 5.84c-.156 1.405.378 2.519 1.045 3.344z" fill="#ADFFBB"/><path d="M151.127 181.306h-.066a3.733 3.733 0 01-2.846-1.382c-.956-1.181-1.401-2.541-1.245-3.967.267-2.542 3.268-5.952 3.624-6.331l.133-.134a.893.893 0 011.201.134c.333.401 3.223 3.901 3.423 6.442.111 1.427-.378 2.809-1.378 3.968a3.854 3.854 0 01-2.846 1.27zm-1.578-2.496a1.96 1.96 0 001.534.735h.044c.578 0 1.134-.245 1.534-.691.712-.802 1.023-1.694.956-2.675-.111-1.337-1.445-3.366-2.379-4.636-.978 1.226-2.378 3.254-2.534 4.57-.111.98.178 1.872.845 2.697z" fill="#005757"/><path d="M151.127 188.306c-.178 1.56-1.845 2.385-3.512 1.739-.978-.379-2.023-1.07-2.668-2.274-1.067-1.984-.511-6.108-.511-6.108h.022s4.357 1.694 5.78 3.5c.845 1.114 1 2.229.889 3.143z" fill="#ADFFBB"/><path d="M148.771 191.159c-.489 0-.978-.089-1.467-.29-1.423-.557-2.468-1.449-3.113-2.675-1.178-2.162-.667-6.174-.6-6.62a.775.775 0 01.356-.58.89.89 0 01.667-.156c.044 0 .133.023.177.045.467.178 4.624 1.828 6.136 3.767.867 1.115 1.223 2.408 1.067 3.767a2.986 2.986 0 01-1.467 2.252 3.273 3.273 0 01-1.756.49zm-3.579-8.203c-.089 1.382-.045 3.366.511 4.414.444.847 1.2 1.471 2.223 1.872.6.245 1.245.223 1.712-.067.244-.156.556-.446.622-.958.111-.892-.133-1.739-.711-2.475-.8-1.047-2.912-2.14-4.357-2.786z" fill="#005757"/><path d="M151.194 188.306c.178 1.56 1.845 2.385 3.512 1.739.979-.379 2.023-1.07 2.668-2.274 1.067-1.984.511-6.108.511-6.108h-.022s-4.357 1.694-5.78 3.5c-.867 1.114-1 2.229-.889 3.143z" fill="#fff"/><path d="M153.55 191.159a3.457 3.457 0 01-1.756-.468 3.025 3.025 0 01-1.467-2.251c-.156-1.36.2-2.653 1.067-3.768 1.512-1.939 5.669-3.588 6.136-3.767a.413.413 0 01.155-.044.882.882 0 01.667.156c.2.133.334.356.356.579.067.446.578 4.459-.6 6.621-.645 1.204-1.712 2.118-3.113 2.675-.466.156-.978.267-1.445.267zm-1.511-2.942c.066.535.378.825.622.958.467.268 1.089.29 1.712.067 1.023-.401 1.778-1.025 2.223-1.872.578-1.07.6-3.032.511-4.414-1.445.647-3.557 1.761-4.357 2.786-.578.736-.8 1.561-.711 2.475z" fill="#005757"/><path d="M151.149 196.398a.856.856 0 01-.867-.87v-15.113c0-.491.378-.87.867-.87.49 0 .867.379.867.87v15.113c0 .491-.377.87-.867.87z" fill="#005757"/><path d="M111.823 180.303c1.134 1.382 3.246 1.427 4.424.067.711-.802 1.289-1.895 1.178-3.321-.178-2.341-3.223-5.952-3.223-5.952l-.023.022s-3.156 3.522-3.401 5.841c-.156 1.426.378 2.518 1.045 3.343z" fill="#ADFFBB"/><path d="M114.068 182.242h-.067a3.733 3.733 0 01-2.845-1.382c-.956-1.181-1.401-2.541-1.245-3.967.267-2.542 3.268-5.952 3.624-6.331l.133-.134a.892.892 0 011.2.134c.334.401 3.224 3.901 3.424 6.442.111 1.427-.378 2.809-1.378 3.968a3.892 3.892 0 01-2.846 1.27zm-1.578-2.496c.378.468.933.735 1.534.735h.044c.578 0 1.134-.245 1.534-.691.712-.802 1.023-1.694.956-2.675-.111-1.337-1.445-3.366-2.379-4.636-.978 1.226-2.378 3.254-2.534 4.592-.111.958.178 1.85.845 2.675z" fill="#005757"/><path d="M114.046 189.086c-.178 1.56-1.845 2.385-3.513 1.739-.978-.379-2.023-1.07-2.667-2.274-1.067-1.984-.512-6.108-.512-6.108h.023s4.357 1.694 5.78 3.5c.844 1.114 1 2.207.889 3.143z" fill="#fff"/><path d="M111.689 191.917c-.489 0-.978-.089-1.467-.29-1.423-.557-2.467-1.449-3.112-2.675-1.178-2.162-.667-6.175-.6-6.62a.772.772 0 01.355-.58.883.883 0 01.667-.156c.045 0 .134.022.178.045.467.178 4.624 1.827 6.136 3.767.867 1.114 1.223 2.407 1.067 3.767a2.985 2.985 0 01-1.467 2.251c-.512.335-1.112.491-1.757.491zm-3.557-8.203c-.088 1.382-.044 3.366.512 4.413.444.847 1.2 1.472 2.223 1.873.6.245 1.245.223 1.712-.067.244-.156.555-.446.622-.959.111-.891-.133-1.738-.711-2.474-.823-1.025-2.912-2.14-4.358-2.786z" fill="#005757"/><path d="M114.113 189.264c.177 1.561 1.845 2.385 3.512 1.739.978-.379 2.023-1.07 2.668-2.274 1.067-1.984.511-6.108.511-6.108h-.022s-4.357 1.694-5.78 3.5c-.845 1.092-1.001 2.207-.889 3.143z" fill="#ADFFBB"/><path d="M116.469 192.095a3.454 3.454 0 01-1.756-.468 3.022 3.022 0 01-1.467-2.251c-.156-1.36.2-2.653 1.067-3.768 1.511-1.939 5.669-3.588 6.135-3.767a.422.422 0 01.156-.044c.245-.045.489 0 .667.156.2.133.333.356.356.579.066.446.578 4.459-.601 6.621-.644 1.204-1.711 2.117-3.112 2.675a4.054 4.054 0 01-1.445.267zm3.579-8.203c-1.445.646-3.557 1.761-4.357 2.786-.578.736-.823 1.583-.711 2.475.066.535.378.825.622.958.467.268 1.089.29 1.712.067 1.023-.401 1.778-1.025 2.223-1.872.556-1.048.6-3.032.511-4.414z" fill="#005757"/><path d="M114.09 197.334a.856.856 0 01-.867-.87v-15.113c0-.491.378-.87.867-.87s.867.379.867.87v15.113c0 .491-.4.87-.867.87z" fill="#005757"/><path d="M75.23 181.685c1.134 1.382 3.246 1.427 4.425.067.711-.802 1.289-1.895 1.178-3.321-.178-2.341-3.224-5.952-3.224-5.952l-.022.022s-3.157 3.522-3.401 5.841c-.156 1.404.378 2.519 1.045 3.343z" fill="#ADFFBB"/><path d="M77.454 183.602h-.067a3.733 3.733 0 01-2.846-1.382c-.956-1.181-1.4-2.541-1.245-3.968.267-2.541 3.268-5.951 3.624-6.33.045-.045.09-.09.156-.134a.884.884 0 011.178.134c.334.401 3.224 3.901 3.424 6.442.11 1.426-.378 2.809-1.379 3.968a3.818 3.818 0 01-2.845 1.27zm-1.556-2.474a1.96 1.96 0 001.534.736h.044a2.06 2.06 0 001.534-.691c.711-.803 1.022-1.695.956-2.675-.111-1.338-1.445-3.366-2.379-4.637-.978 1.226-2.379 3.254-2.534 4.592-.111.958.178 1.85.845 2.675z" fill="#005757"/><path d="M77.41 190.49c-.179 1.561-1.846 2.385-3.513 1.739-.978-.379-2.023-1.07-2.668-2.274-1.067-1.984-.511-6.108-.511-6.108h.022s4.357 1.695 5.78 3.5c.845 1.115 1 2.207.89 3.143z" fill="#ADFFBB"/><path d="M75.053 193.321a3.82 3.82 0 01-1.468-.29c-1.422-.557-2.467-1.449-3.112-2.675-1.178-2.162-.667-6.174-.6-6.62a.775.775 0 01.356-.58.89.89 0 01.667-.156c.044 0 .133.023.177.045.467.178 4.625 1.828 6.136 3.767.867 1.115 1.223 2.408 1.067 3.767a2.988 2.988 0 01-1.467 2.252c-.511.334-1.134.49-1.756.49zm-3.557-8.203c-.09 1.382-.045 3.366.511 4.414.445.847 1.2 1.471 2.223 1.872.6.245 1.245.223 1.712-.067.245-.156.556-.446.623-.958.11-.892-.134-1.739-.712-2.475-.822-1.025-2.912-2.14-4.357-2.786z" fill="#005757"/><path d="M77.52 190.624c.178 1.56 1.846 2.385 3.513 1.739.978-.379 2.023-1.07 2.668-2.274 1.067-1.984.51-6.108.51-6.108h-.021s-4.358 1.694-5.78 3.5c-.845 1.115-1 2.229-.89 3.143z" fill="#fff"/><path d="M79.877 193.455a3.455 3.455 0 01-1.756-.468 3.026 3.026 0 01-1.468-2.252c-.155-1.359.2-2.652 1.067-3.767 1.512-1.939 5.67-3.589 6.136-3.767a.418.418 0 01.156-.045.891.891 0 01.667.156c.2.134.333.357.355.58.067.446.578 4.458-.6 6.62-.644 1.204-1.712 2.118-3.112 2.675a4.032 4.032 0 01-1.445.268zm-1.49-2.943c.067.535.378.825.623.959.467.268 1.09.29 1.712.067 1.022-.401 1.778-1.026 2.223-1.873.578-1.047.6-3.031.511-4.413-1.445.646-3.557 1.761-4.357 2.786-.578.758-.823 1.583-.712 2.474z" fill="#005757"/><path d="M77.498 198.716a.855.855 0 01-.867-.869v-15.136c0-.491.378-.87.867-.87.49 0 .867.379.867.87v15.113c0 .491-.4.892-.867.892z" fill="#005757"/><path d="M138.545 165.368c0 3.009-2.446 5.461-5.447 5.461s-5.447-2.452-5.447-5.461c0-3.009 5.447-11.502 5.447-11.502s5.447 8.493 5.447 11.502z" fill="#00C46F"/><path d="M133.12 171.699c-3.49 0-6.313-2.831-6.313-6.331 0-3.188 5.002-11.079 5.58-11.97a.884.884 0 01.733-.402c.289 0 .578.156.734.402.578.891 5.58 8.782 5.58 11.97 0 3.5-2.846 6.331-6.314 6.331zm0-16.184c-1.734 2.831-4.579 7.914-4.579 9.853 0 2.519 2.045 4.592 4.579 4.592a4.594 4.594 0 004.58-4.592c-.023-1.939-2.868-7.022-4.58-9.853z" fill="#005757"/><path d="M120.36 147.58c0 3.477-2.802 6.308-6.292 6.308-3.49 0-6.269-2.831-6.269-6.308 0-3.478 6.291-13.264 6.291-13.264s6.27 9.786 6.27 13.264z" fill="#00C46F"/><path d="M114.09 154.735c-3.934 0-7.158-3.21-7.158-7.178 0-3.633 5.758-12.728 6.425-13.731a.886.886 0 01.733-.401c.289 0 .578.156.734.401.667 1.025 6.425 10.12 6.425 13.731-.022 3.968-3.224 7.178-7.159 7.178zm0-18.792c-2 3.255-5.402 9.318-5.402 11.637 0 2.987 2.423 5.416 5.402 5.416s5.403-2.429 5.403-5.416c0-2.319-3.424-8.382-5.403-11.637z" fill="#005757"/><path d="M99.818 166.728a4.38 4.38 0 11-8.759 0c0-2.43 4.38-9.273 4.38-9.273s4.38 6.843 4.38 9.273z" fill="#fff"/><path d="M95.416 171.988c-2.89 0-5.246-2.362-5.246-5.26 0-2.608 4.068-9.006 4.513-9.742a.888.888 0 01.733-.401c.29 0 .578.156.734.401.467.714 4.513 7.134 4.513 9.742.022 2.898-2.334 5.26-5.247 5.26zm0-12.884c-1.578 2.608-3.512 6.264-3.512 7.624a3.525 3.525 0 003.512 3.522 3.525 3.525 0 003.513-3.522c0-1.36-1.912-4.994-3.513-7.624zm-10.893-9.652a.954.954 0 01-.622-.245c-3.424-3.433-8.76-6.264-14.74-.245a.871.871 0 01-1.222 0 .876.876 0 010-1.226c5.38-5.395 11.649-5.306 17.207.245a.876.876 0 010 1.226.954.954 0 01-.623.245z" fill="#005757"/><path d="M87.924 146.019a.954.954 0 01-.622-.245c-6.692-6.71-15.206-6.866-21.675-.357a.87.87 0 01-1.223 0 .876.876 0 010-1.226c7.225-7.244 16.696-7.088 24.143.357a.876.876 0 010 1.226.954.954 0 01-.623.245z" fill="#005757"/><path d="M91.66 142.274a.954.954 0 01-.622-.245c-8.893-8.917-20.186-9.095-28.79-.49a.871.871 0 01-1.222 0 .876.876 0 010-1.226c9.337-9.363 21.608-9.184 31.234.49a.876.876 0 010 1.226.858.858 0 01-.6.245z" fill="#005757"/><path d="M78.499 150.344c1.178 1.181 1.222 3.053.089 4.19-1.134 1.137-3.002 1.115-4.18-.067-1.178-1.181-1.223-3.053-.089-4.19 1.134-1.137 3.001-1.115 4.18.067z" fill="#ADFFBB"/><path d="M76.542 156.251h-.066a3.914 3.914 0 01-2.713-1.159 3.934 3.934 0 01-1.156-2.72 3.753 3.753 0 011.067-2.719c1.468-1.472 3.89-1.449 5.403.066a3.936 3.936 0 011.156 2.72 3.757 3.757 0 01-1.068 2.72 3.619 3.619 0 01-2.623 1.092zm-.2-5.93c-.511 0-1.022.201-1.4.58a2.024 2.024 0 00-.578 1.449c.022.557.244 1.092.644 1.516.4.401.934.646 1.512.646.556 0 1.067-.2 1.445-.579.378-.379.578-.892.578-1.449a2.334 2.334 0 00-.645-1.516c-.444-.446-1-.647-1.556-.647z" fill="#005757"/><path d="M215.53 198.426v5.484c0 2.742-2.223 4.971-4.957 4.971h-31.768c-2.735 0-4.958-2.229-4.958-4.971v-5.484h41.683z" fill="#ADFFBB"/><path d="M210.595 209.75h-31.79c-3.201 0-5.825-2.608-5.825-5.84v-5.484c0-.49.378-.869.867-.869h41.683c.489 0 .867.379.867.869v5.484c.023 3.232-2.601 5.84-5.802 5.84zm-35.858-10.455v4.615c0 2.251 1.822 4.101 4.09 4.101h31.768a4.1 4.1 0 004.091-4.101v-4.615h-39.949z" fill="#005757"/><path d="M215.53 137.749v60.677h-41.66v-60.677c0-2.742 2.223-4.971 4.957-4.971h31.768c2.735 0 4.935 2.229 4.935 4.971z" fill="#fff"/><path d="M215.53 199.295h-41.661a.855.855 0 01-.867-.869v-60.677c0-3.21 2.601-5.84 5.825-5.84h31.768c3.201 0 5.824 2.608 5.824 5.84v60.677c0 .49-.4.869-.889.869zm-40.794-1.738h39.949v-59.808c0-2.251-1.823-4.102-4.09-4.102h-31.79a4.1 4.1 0 00-4.091 4.102v59.808h.022z" fill="#005757"/><path d="M199.368 136.768h-7.469a.855.855 0 01-.867-.869c0-.491.378-.869.867-.869h7.469c.49 0 .867.378.867.869 0 .49-.377.869-.867.869z" fill="#005757"/><path d="M201.414 144.971s-.445 1.204-.667 2.898c-.267 2.096-.156 4.994 1.623 7.356 5.535 7.379 5.691 14.2 2.69 19.327-2.357 4.012-6.603 7-11.761 8.448 0 0-8.981-4.592-11.16-13.842-.911-3.812-.2-7.825 1.69-11.235 1.156-2.118 3.179-4.904 6.069-7.379 2.912-2.519 6.736-4.703 11.516-5.573z" fill="#00C46F"/><path d="M193.299 183.87a.87.87 0 01-.4-.089c-.378-.201-9.359-4.882-11.604-14.423-.912-3.901-.289-8.114 1.778-11.859.889-1.605 2.868-4.726 6.269-7.623 3.513-3.01 7.514-4.927 11.916-5.752.311-.066.623.067.823.29.2.245.266.58.155.87 0 .022-.422 1.136-.6 2.697-.222 1.872-.178 4.57 1.445 6.71 5.313 7.066 6.269 14.266 2.734 20.307-2.445 4.146-6.802 7.289-12.271 8.85-.089 0-.156.022-.245.022zm6.87-37.739c-3.535.891-6.803 2.585-9.693 5.06-3.179 2.719-5.046 5.64-5.869 7.155-1.867 3.366-2.445 7.134-1.623 10.611 1.845 7.824 8.893 12.216 10.427 13.107 4.89-1.449 8.736-4.28 10.893-7.958 3.157-5.394 2.223-11.903-2.623-18.368-1.979-2.63-2.068-5.796-1.779-7.98.067-.624.178-1.159.267-1.627z" fill="#005757"/><path d="M195.389 192.051a.894.894 0 01-.822-.557c-8.559-22.871 0-37.249.378-37.851a.884.884 0 011.2-.29c.4.245.534.78.289 1.204-.089.134-8.448 14.289-.222 36.335a.858.858 0 01-.512 1.114c-.111.023-.2.045-.311.045z" fill="#005757"/><path d="M191.877 168.288s-2.468-3.477-2.846-7.713l2.846 7.713z" fill="#fff"/><path d="M191.877 169.158a.928.928 0 01-.712-.357c-.111-.156-2.623-3.723-3.001-8.136-.044-.491.311-.892.8-.937a.87.87 0 01.934.803c.334 3.923 2.646 7.245 2.668 7.267.289.401.178.936-.2 1.226a1.14 1.14 0 01-.489.134z" fill="#005757"/><path d="M192.477 177.695s4.602-3.455 7.18-7.378l-7.18 7.378z" fill="#fff"/><path d="M192.499 178.565a.798.798 0 01-.689-.357c-.289-.379-.2-.936.178-1.226.044-.045 4.513-3.411 6.98-7.156a.867.867 0 111.445.959c-2.645 4.012-7.203 7.445-7.403 7.601a.753.753 0 01-.511.179z" fill="#005757"/></g><defs><linearGradient id="paint0_linear" x1="137" y1="284" x2="137" y2="10" gradientUnits="userSpaceOnUse"><stop stop-color="#EDF0F9"/><stop offset="1" stop-color="#F1F5FF" stop-opacity=".5"/></linearGradient><clipPath id="clip0"><path fill="#fff" transform="translate(54 61)" d="M0 0h169v172H0z"/></clipPath></defs></svg>