<svg width="73" height="50" fill="none" xmlns="http://www.w3.org/2000/svg"><path d="M33.41 22.95c-6.413 0-11.566-4.046-11.566-11.397C21.844 5.1 25.958 0 33.162 0c3.245 0 6.9 1.432 9.14 4.131l-4.206 3.576c-1.018-.976-2.637-2.087-4.948-2.087-2.694 0-5.119 2.108-5.119 5.933 0 3.184 1.93 5.934 5.38 5.934 1.174 0 2.135-.185 3.323-.741v-2.058H32.95V9.864h9.338v10.4c-1.972 1.51-5.43 2.692-8.879 2.685zm23.568-.27L52.8 15.862h-1.371v6.816h-5.762V.328h8.879c5.556 0 8.073 3.362 8.073 7.949 0 3.27-1.378 5.485-3.747 6.638l-.02.05 5.018 7.729h-6.892v-.015zm-5.535-12.003h1.795c1.895 0 3.245-.876 3.245-2.55 0-1.36-1.082-2.55-3.245-2.55h-1.795v5.1zM66.288.328h6.016v22.358h-6.016V.328zm-52.581 0H8.045L0 22.679h6.214l4.665-15.15 4.673 15.15h6.207L13.707.328z" fill="#302B6B"/><path d="M3.711 14.153s.205 2.458-1.173 2.251c-1.492-.22-1.442-1.802-1.11-2.35.34-.549 1.654-2.415.735-3.697 0 0 3.217 1.417 2.192 5.798 0 0 1.456-3.327 3.69-4.103 2.234-.762 4.319-.328 5.775-.591 1.457-.257 2.694-.52 4.171-1.61 0 0 .262 3.483-.777 4.95-1.23 1.739-2.376 2.935-6.023 3.904-3.655.969-8.271.392-8.406 3.982 0 0-.148-2.265.933-3.847 1.082-1.581 2.602-4.559 7.416-5.798 0 0-3.535-1.282-7.048 4.06-.007 0 .276-1.902-.375-2.949z" fill="#0BB451"/><path d="M2.317 34.428h2.411v-6.892h2.299v-2.16H0v2.16h2.317v6.892zm6.115 0h6.314V32.28h-3.96v-1.276h2.886V28.9h-2.886v-1.364h3.686v-2.16h-6.04v9.052zm12.148.131a4.773 4.773 0 003.703-1.725l-1.78-1.525a2.588 2.588 0 01-1.924.921c-1.361 0-2.18-1.077-2.18-2.303 0-1.538 1.056-2.347 2.18-2.347.85 0 1.543.51 1.924.934l1.78-1.52a4.862 4.862 0 00-3.704-1.749c-3.023 0-4.734 2.098-4.734 4.682 0 3.02 2.211 4.632 4.74 4.632h-.006zm5.09-.131h2.46v-3.293h2.742v3.293h2.461v-9.052h-2.46v3.61H28.13v-3.61h-2.46v9.052zm12.565.068h5.772V33.8h-5.044v-3.53h3.961v-.694h-3.961v-3.568h4.765v-.694h-5.493v9.18zm13.89 0h.886l-3.215-4.585 3.19-4.596h-.874l-2.778 3.997h-.019L46.5 25.315h-.86l3.202 4.596-3.215 4.585h.886l2.797-3.966h.025l2.79 3.966zm3.069 0h.727v-3.707h2.177c1.873 0 3.17-.846 3.17-2.76 0-1.546-.848-2.714-2.949-2.714H55.2l-.005 9.18zm.733-4.408V26.01h2.386c1.33 0 2.183.663 2.183 2.02 0 1.163-.658 2.066-2.417 2.066l-2.151-.007zm11.821 4.471c2.537 0 4.556-1.85 4.556-4.66 0-2.791-2.019-4.654-4.556-4.654-2.728 0-4.563 2.052-4.563 4.654 0 2.614 1.835 4.66 4.563 4.66zm0-.72c-2.272 0-3.797-1.768-3.797-3.947 0-2.159 1.525-3.927 3.797-3.927 2.094 0 3.784 1.591 3.784 3.927 0 2.343-1.69 3.947-3.784 3.947z" fill="#302B6B"/><path fill="#0BB451" d="M0 36.765h72.304V50H0z"/><path d="M9.928 47.55v-1.514c.252-.164.46-.303.628-.417.222-.15.421-.295.599-.432a8.278 8.278 0 001.452-1.418c.131-.167.245-.33.342-.487.238-.392.357-.74.357-1.046 0-.492-.24-.739-.719-.739-.315 0-.544.13-.688.387-.108.191-.17.463-.186.815H9.858c.01-.369.043-.672.1-.91a2.56 2.56 0 01.352-.84 2.421 2.421 0 011.02-.88 3.1 3.1 0 011.328-.28c.522 0 .99.107 1.402.321.452.235.784.573.995 1.015.13.295.196.587.196.875 0 .392-.079.78-.236 1.166a4.5 4.5 0 01-.603 1.036 8.41 8.41 0 01-.815.91c-.13.127-.278.264-.442.411a10.9 10.9 0 01-.437.387H15.3v1.64H9.928zM31.05 44.8c0 .593-.124 1.11-.372 1.553a2.538 2.538 0 01-1.18 1.06 2.852 2.852 0 01-1.258.282 3 3 0 01-1.16-.236c-1.14-.48-1.71-1.366-1.71-2.66v-2.12c0-1.317.573-2.205 1.72-2.665.388-.15.772-.226 1.15-.226.393 0 .781.082 1.167.247 1.095.479 1.643 1.36 1.643 2.644v2.12zm-1.945-2.172c0-.338-.06-.601-.18-.789-.152-.228-.39-.342-.715-.342-.308 0-.54.116-.698.347-.131.198-.196.46-.196.784v2.222c0 .328.065.591.196.79.154.23.387.346.698.346.325 0 .563-.114.714-.342.12-.19.181-.456.181-.794v-2.222zm12.079 4.922v-1.514c.252-.164.461-.303.629-.417.221-.15.42-.295.598-.432a8.283 8.283 0 001.453-1.418c.13-.167.244-.33.341-.487.238-.392.357-.74.357-1.046 0-.492-.24-.739-.718-.739-.316 0-.545.13-.69.387-.106.191-.168.463-.185.815h-1.855c.01-.369.044-.672.1-.91.068-.302.185-.581.352-.84a2.421 2.421 0 011.02-.88 3.1 3.1 0 011.328-.28c.523 0 .99.107 1.402.321.453.235.784.573.995 1.015.131.295.197.587.197.875 0 .392-.08.78-.237 1.166a4.5 4.5 0 01-.603 1.036 8.5 8.5 0 01-.814.91c-.13.127-.278.264-.443.411a10.9 10.9 0 01-.437.387h2.584v1.64h-5.373zm17.418 0v-5.982h-1.246v-1.639h3.191v7.62h-1.945z" fill="#fff"/></svg>