<svg width="83" height="58" fill="none" xmlns="http://www.w3.org/2000/svg"><path d="M38.351 26.949c-7.36 0-13.276-4.645-13.276-13.083 0-7.408 4.723-13.262 12.992-13.262 3.725 0 7.92 1.643 10.493 4.742l-4.828 4.105c-1.169-1.12-3.027-2.396-5.68-2.396-3.093 0-5.876 2.42-5.876 6.811 0 3.655 2.215 6.811 6.175 6.811 1.348 0 2.451-.212 3.814-.85v-2.363h-4.341v-5.536h10.72v11.938c-2.264 1.733-6.232 3.09-10.193 3.083zm27.056-.311l-4.796-7.825h-1.575v7.825h-6.613V.979h10.192c6.378 0 9.267 3.86 9.267 9.126 0 3.753-1.582 6.296-4.3 7.62l-.025.057 5.762 8.872h-7.912v-.016zM59.053 12.86h2.06c2.176 0 3.726-1.006 3.726-2.927 0-1.562-1.242-2.927-3.725-2.927h-2.061v5.854zM76.094.98H83v25.666h-6.906V.979zm-60.359 0h-6.5L0 26.637h7.133l5.356-17.392 5.364 17.392h7.125L15.735.979z" fill="#fff"/><path d="M4.26 16.85s.236 2.822-1.347 2.585c-1.712-.254-1.655-2.07-1.274-2.699.39-.63 1.9-2.772.844-4.243 0 0 3.692 1.627 2.516 6.655 0 0 1.671-3.818 4.236-4.71 2.564-.874 4.958-.375 6.63-.678 1.671-.294 3.092-.597 4.788-1.848 0 0 .3 3.998-.893 5.683-1.412 1.995-2.727 3.369-6.914 4.48-4.195 1.113-9.495.45-9.649 4.571 0 0-.17-2.6 1.071-4.415 1.242-1.815 2.987-5.233 8.513-6.656 0 0-4.057-1.472-8.09 4.66-.009 0 .316-2.182-.43-3.384z" fill="#0BB451"/><path d="M2.66 40.125h2.768v-7.912h2.638v-2.48H0v2.48h2.66v7.912zm7.019 0h7.249v-2.466h-4.546v-1.465h3.313v-2.416h-3.313v-1.565h4.23v-2.48H9.68v10.392zm13.945.15a5.48 5.48 0 004.252-1.98l-2.044-1.75c-.502.62-1.376 1.057-2.208 1.057-1.563 0-2.502-1.236-2.502-2.644 0-1.766 1.211-2.695 2.502-2.695.975 0 1.77.586 2.208 1.072l2.044-1.744a5.581 5.581 0 00-4.252-2.008c-3.47 0-5.435 2.409-5.435 5.375 0 3.466 2.538 5.317 5.442 5.317h-.007zm5.843-.15h2.825v-3.78h3.147v3.78h2.825V29.733H35.44v4.145h-3.147v-4.145h-2.825v10.392zm14.425.077h6.624v-.797h-5.79v-4.052h4.548v-.797h-4.547V30.46h5.47v-.797H43.89v10.54zm15.944 0h1.017l-3.69-5.262 3.66-5.277h-1.002l-3.189 4.588h-.021l-3.233-4.588h-.988l3.676 5.277-3.69 5.262h1.017l3.21-4.552h.03l3.203 4.552zm3.522 0h.836v-4.255h2.499c2.15 0 3.639-.97 3.639-3.167 0-1.776-.973-3.117-3.385-3.117h-3.581l-.008 10.54zm.843-5.06V30.46h2.739c1.525 0 2.506.761 2.506 2.32 0 1.334-.756 2.37-2.775 2.37l-2.47-.007zm13.569 5.133c2.913 0 5.23-2.124 5.23-5.35 0-3.203-2.317-5.342-5.23-5.342-3.131 0-5.238 2.356-5.238 5.342 0 3.001 2.107 5.35 5.238 5.35zm0-.827c-2.608 0-4.359-2.03-4.359-4.53 0-2.479 1.751-4.508 4.359-4.508 2.404 0 4.344 1.826 4.344 4.508 0 2.69-1.94 4.53-4.344 4.53z" fill="#fff"/><path fill="#0BB451" d="M0 42.807h83V58H0z"/><path d="M11.397 55.186V53.45c.288-.188.529-.348.721-.478.254-.174.483-.339.687-.497a9.525 9.525 0 001.667-1.627c.15-.192.281-.379.393-.56.273-.45.41-.85.41-1.2 0-.565-.276-.848-.826-.848-.361 0-.625.148-.79.444-.123.22-.195.531-.214.935h-2.129c.012-.423.05-.771.115-1.044.077-.346.212-.668.404-.964a2.78 2.78 0 011.172-1.01c.461-.215.97-.323 1.523-.323.6 0 1.137.123 1.61.37.52.269.9.657 1.142 1.165.15.339.225.673.225 1.004 0 .45-.09.896-.27 1.339a5.166 5.166 0 01-.693 1.188c-.25.331-.562.68-.935 1.045-.15.146-.32.304-.508.473-.13.123-.298.271-.502.444h2.966v1.881h-6.168zm24.247-3.156c0 .68-.143 1.275-.427 1.783a2.91 2.91 0 01-1.356 1.217 3.274 3.274 0 01-1.443.323c-.454 0-.898-.09-1.333-.27-1.308-.55-1.962-1.568-1.962-3.053v-2.435c0-1.512.658-2.531 1.974-3.058.446-.173.886-.26 1.321-.26.45 0 .896.095 1.339.283 1.258.55 1.887 1.562 1.887 3.035v2.435zm-2.233-2.493c0-.388-.07-.69-.208-.905-.173-.262-.446-.393-.82-.393-.353 0-.62.133-.802.398-.15.227-.225.527-.225.9v2.55c0 .378.075.68.225.907.177.265.445.398.802.398.374 0 .647-.131.82-.393.138-.219.208-.523.208-.911v-2.55zm13.866 5.649V53.45c.288-.188.529-.348.721-.478.254-.174.483-.339.687-.497a9.513 9.513 0 001.667-1.627c.15-.192.281-.379.393-.56.273-.45.41-.85.41-1.2 0-.565-.276-.848-.826-.848-.361 0-.625.148-.79.444-.123.22-.194.531-.214.935h-2.129c.012-.423.05-.771.116-1.044a2.92 2.92 0 01.404-.964 2.78 2.78 0 011.17-1.01c.462-.215.97-.323 1.524-.323.6 0 1.137.123 1.61.37.52.269.9.657 1.142 1.165.15.339.225.673.225 1.004 0 .45-.09.896-.27 1.339a5.166 5.166 0 01-.693 1.188c-.25.331-.562.68-.935 1.045-.15.146-.32.304-.508.473-.13.123-.298.271-.502.444h2.966v1.881h-6.168zm19.994 0V48.32h-1.43v-1.881h3.663v8.747h-2.233z" fill="#fff"/></svg>